# xmcd
#
# Track frame offsets: 
#        150
#        11602
#        30638
#        46703
#        56769
#        75823
#        95167
#        108679
#        126988
#        138748
#        157073
#        173868
#        199464
#        213561
#
# Disc length: 3097 seconds
#
# Revision: 1
# Processed by: cddbd v1.5.2PL0 Copyright (c) Steve Scherf et al.
# Submitted via: ExactAudioCopy v0.99pb5
#
DISCID=ca0c170e
DTITLE=Paridé Canestraro Quintet - Strings Pinte Di Blue
DYEAR=1997
DGENRE=Jazz
TTITLE0=Esquisse de Blues
TTITLE1=From New-Orleans To New-York
TTITLE2=Lola
TTITLE3=La Valse à Django
TTITLE4=Double Basse Suite
TTITLE5=Ciudad Rodrigo
TTITLE6=Deux Doigts.
TTITLE7=Tango En Do
TTITLE8=Valse Bavarde
TTITLE9=Tango Di Blue
TTITLE10=Arthur Smith Swing
TTITLE11=Lazy Zen
TTITLE12=Tangossimo
TTITLE13=Blues Round And Around
EXTD=YEAR: 1997
EXTT0=
EXTT1=
EXTT2=
EXTT3=
EXTT4=
EXTT5=
EXTT6=
EXTT7=
EXTT8=
EXTT9=
EXTT10=
EXTT11=
EXTT12=
EXTT13=
PLAYORDER=
